<svg width="798" height="798" viewBox="0 0 798 798" fill="none" xmlns="http://www.w3.org/2000/svg">
<g filter="url(#filter0_d_4377_40594)">
<path d="M380.654 227.649C392.401 222.784 405.599 222.784 417.346 227.649L507.191 264.864C518.937 269.73 528.27 279.063 533.136 290.809L570.351 380.654C575.216 392.401 575.216 405.599 570.351 417.346L533.136 507.191C528.27 518.937 518.937 528.27 507.191 533.136L417.346 570.351C405.599 575.216 392.401 575.216 380.654 570.351L290.809 533.136C279.063 528.27 269.73 518.937 264.864 507.191L227.649 417.346C222.784 405.599 222.784 392.401 227.649 380.654L264.864 290.809C269.73 279.063 279.063 269.73 290.809 264.864L380.654 227.649Z" fill="url(#paint0_linear_4377_40594)"/>
<path d="M380.654 227.649C392.401 222.784 405.599 222.784 417.346 227.649L507.191 264.864C518.937 269.73 528.27 279.063 533.136 290.809L570.351 380.654C575.216 392.401 575.216 405.599 570.351 417.346L533.136 507.191C528.27 518.937 518.937 528.27 507.191 533.136L417.346 570.351C405.599 575.216 392.401 575.216 380.654 570.351L290.809 533.136C279.063 528.27 269.73 518.937 264.864 507.191L227.649 417.346C222.784 405.599 222.784 392.401 227.649 380.654L264.864 290.809C269.73 279.063 279.063 269.73 290.809 264.864L380.654 227.649Z" stroke="url(#paint1_linear_4377_40594)" stroke-width="6"/>
</g>
<defs>
<filter id="filter0_d_4377_40594" x="0.953598" y="0.953598" width="796.093" height="796.093" filterUnits="userSpaceOnUse" color-interpolation-filters="sRGB">
<feFlood flood-opacity="0" result="BackgroundImageFix"/>
<feColorMatrix in="SourceAlpha" type="matrix" values="0 0 0 0 0 0 0 0 0 0 0 0 0 0 0 0 0 0 127 0" result="hardAlpha"/>
<feOffset/>
<feGaussianBlur stdDeviation="110.023"/>
<feColorMatrix type="matrix" values="0 0 0 0 0.670588 0 0 0 0 0.560784 0 0 0 0 0.388235 0 0 0 0.75 0"/>
<feBlend mode="normal" in2="BackgroundImageFix" result="effect1_dropShadow_4377_40594"/>
<feBlend mode="normal" in="SourceGraphic" in2="effect1_dropShadow_4377_40594" result="shape"/>
</filter>
<linearGradient id="paint0_linear_4377_40594" x1="268.457" y1="546.921" x2="516.206" y2="261.182" gradientUnits="userSpaceOnUse">
<stop stop-color="#31362F"/>
<stop offset="1" stop-color="#9D9D9D" stop-opacity="0"/>
</linearGradient>
<linearGradient id="paint1_linear_4377_40594" x1="399" y1="224" x2="399" y2="574" gradientUnits="userSpaceOnUse">
<stop stop-color="#FFFFEB"/>
<stop offset="1" stop-color="#AB8F63"/>
</linearGradient>
</defs>
</svg>
