<svg width="1010" height="1010" viewBox="0 0 1010 1010" fill="none" xmlns="http://www.w3.org/2000/svg">
<path d="M452.583 15.4264C486.145 1.52451 523.855 1.52455 557.417 15.4264L814.116 121.755C847.679 135.657 874.343 162.322 888.245 195.884L994.574 452.583C1008.48 486.145 1008.48 523.855 994.574 557.417L888.245 814.116C874.343 847.679 847.678 874.343 814.116 888.245L557.417 994.574C523.855 1008.48 486.145 1008.48 452.583 994.574L195.884 888.245C162.321 874.343 135.657 847.678 121.755 814.116L15.4264 557.417C1.52451 523.855 1.52455 486.145 15.4264 452.583L121.755 195.884C135.657 162.321 162.322 135.657 195.884 121.755L452.583 15.4264Z" fill="url(#paint0_linear_4377_40574)" stroke="url(#paint1_linear_4377_40574)" stroke-width="10"/>
<defs>
<filter id="filter0_d_4513_30928" x="0.953598" y="-179.046" width="1450.09" height="1450.09" filterUnits="userSpaceOnUse" color-interpolation-filters="sRGB">
<feFlood flood-opacity="0" result="BackgroundImageFix"/>
<feColorMatrix in="SourceAlpha" type="matrix" values="0 0 0 0 0 0 0 0 0 0 0 0 0 0 0 0 0 0 127 0" result="hardAlpha"/>
<feOffset/>
<feGaussianBlur stdDeviation="110.023"/>
<feColorMatrix type="matrix" values="0 0 0 0 0.670588 0 0 0 0 0.560784 0 0 0 0 0.388235 0 0 0 0.75 0"/>
<feBlend mode="normal" in2="BackgroundImageFix" result="effect1_dropShadow_4513_30928"/>
<feBlend mode="normal" in="SourceGraphic" in2="effect1_dropShadow_4513_30928" result="shape"/>
</filter>
<linearGradient id="paint0_linear_4377_40574" x1="132.021" y1="927.633" x2="839.873" y2="111.236" gradientUnits="userSpaceOnUse">
<stop stop-color="#31362F"/>
<stop offset="1" stop-color="#9D9D9D" stop-opacity="0"/>
</linearGradient>
<linearGradient id="paint1_linear_4377_40574" x1="505" y1="5" x2="505" y2="1005" gradientUnits="userSpaceOnUse">
<stop stop-color="#FFFFEB"/>
<stop offset="1" stop-color="#AB8F63"/>
</linearGradient>
</defs>
</svg>
